<?xml version="1.0" encoding="UTF-8" standalone="no" ?>
<!DOCTYPE svg PUBLIC "-//W3C//DTD SVG 1.1//EN" "http://www.w3.org/Graphics/SVG/1.1/DTD/svg11.dtd">
<svg xmlns="http://www.w3.org/2000/svg" xmlns:xlink="http://www.w3.org/1999/xlink" version="1.1" width="24" height="24" viewBox="0 0 1200 900" xml:space="preserve">
<desc>Created with Fabric.js 5.2.4</desc>
<defs>
</defs>
<g transform="matrix(1 0 0 1 600 450)" id="f8ce3855-7a04-4524-8e34-db5f3034f0ec"  >
<rect style="stroke: none; stroke-width: 1; stroke-dasharray: none; stroke-linecap: butt; stroke-dashoffset: 0; stroke-linejoin: miter; stroke-miterlimit: 4; fill: rgb(255,255,255); fill-rule: nonzero; opacity: 1; visibility: hidden;" vector-effect="non-scaling-stroke"  x="-600" y="-450" rx="0" ry="0" width="1200" height="900" />
</g>
<g transform="matrix(Infinity NaN NaN Infinity 0 0)" id="e9f75e0c-7de7-46b8-b7b8-534ca4e3aa98"  >
</g>
<g transform="matrix(37.5 0 0 37.5 600 450)"  >
<g style=""   >
		<g transform="matrix(1 0 0 1 0.5 0.33)" id="Vector"  >
<path style="stroke: none; stroke-width: 1; stroke-dasharray: none; stroke-linecap: butt; stroke-dashoffset: 0; stroke-linejoin: miter; stroke-miterlimit: 4; fill: rgb(255,0,0); fill-rule: evenodd; opacity: 1;" vector-effect="non-scaling-stroke"  transform=" translate(-12.5, -12.33)" d="M 16.4583 10.7951 L 16.4583 8.375 C 16.4583 7.06332 15.395 6 14.0833 6 L 5.375 6 C 4.06332 6 3 7.06332 3 8.375 L 3 16.2917 C 3 17.6033 4.06332 18.6667 5.375 18.6667 L 14.0833 18.6667 C 15.395 18.6667 16.4583 17.6033 16.4583 16.2917 L 16.4583 13.8718 L 20.7482 16.936 C 20.9895 17.1083 21.3069 17.1314 21.5706 16.9957 C 21.8343 16.86 22 16.5883 22 16.2917 L 22 8.37508 C 22 8.07853 21.8343 7.80685 21.5706 7.67116 C 21.3069 7.53546 20.9895 7.55851 20.7482 7.73087 L 16.4583 10.7951 Z M 4.58333 8.375 C 4.58333 7.93777 4.93777 7.58333 5.375 7.58333 L 14.0833 7.58333 C 14.5206 7.58333 14.875 7.93777 14.875 8.375 L 14.875 16.2917 C 14.875 16.7289 14.5206 17.0833 14.0833 17.0833 L 5.375 17.0833 C 4.93777 17.0833 4.58333 16.7289 4.58333 16.2917 L 4.58333 8.375 Z M 20.4167 14.7534 L 17.0287 12.3334 L 20.4167 9.91344 L 20.4167 14.7534 Z" stroke-linecap="round" />
</g>
		<g transform="matrix(1 0 0 1 0 0)" id="close-video-Icon"  >
<path style="stroke: rgb(255,0,0); stroke-width: 2; stroke-dasharray: none; stroke-linecap: round; stroke-dashoffset: 0; stroke-linejoin: round; stroke-miterlimit: 4; fill: none; fill-rule: nonzero; opacity: 1;" vector-effect="non-scaling-stroke"  transform=" translate(-12, -12)" d="M 7 7 L 17 17" stroke-linecap="round" />
</g>
		<g transform="matrix(1 0 0 1 0 0)" id="close-video-Icon"  >
<path style="stroke: rgb(255,0,0); stroke-width: 2; stroke-dasharray: none; stroke-linecap: round; stroke-dashoffset: 0; stroke-linejoin: round; stroke-miterlimit: 4; fill: none; fill-rule: nonzero; opacity: 1;" vector-effect="non-scaling-stroke"  transform=" translate(-12, -12)" d="M 7 17 L 17 7" stroke-linecap="round" />
</g>
</g>
</g>
<g transform="matrix(7.68 0 0 7.68 579.13 450)" id="33b1724e-a7ce-460f-b0b4-82075390e91e"  >
<path style="stroke: rgb(0,0,0); stroke-width: 0; stroke-dasharray: none; stroke-linecap: butt; stroke-dashoffset: 0; stroke-linejoin: miter; stroke-miterlimit: 4; fill: rgb(0,0,0); fill-opacity: 0; fill-rule: nonzero; opacity: 1;" vector-effect="non-scaling-stroke"  transform=" translate(-50, -50)" d="M 16.28 19.945 L 19.957 16.32 C 22.060000000000002 14.166 25.578000000000003 14.166 27.681 16.32 L 50.007000000000005 38.595 L 72.333 16.32 C 74.43599999999999 14.166 77.954 14.166 80.054 16.32 L 83.68 19.945 C 85.834 22.046 85.834 25.566000000000003 83.68 27.668 L 61.405 49.993 L 83.68 72.32 C 85.834 74.422 85.834 77.939 83.68 80.04299999999999 L 80.054 83.72099999999999 C 77.95400000000001 85.82 74.436 85.82 72.333 83.72099999999999 L 50.007 61.393 L 27.681 83.721 C 25.578 85.82000000000001 22.060000000000002 85.82000000000001 19.957 83.721 L 16.28 80.043 C 14.180000000000001 77.93900000000001 14.180000000000001 74.42200000000001 16.28 72.32000000000001 L 38.606 49.99300000000001 L 16.28 27.667 C 14.18 25.566 14.18 22.046 16.28 19.945 z" stroke-linecap="round" />
</g>
</svg>