<svg width="25" height="24" viewBox="0 0 25 24" fill="none" xmlns="http://www.w3.org/2000/svg">
<g id="calling -Icons">
<path id="Vector" d="M17.4969 12C17.4969 13.1226 18.3781 14 19.5031 14C20.6094 14 21.5 13.1038 21.5 12C21.5 10.9057 20.6094 10 19.5031 10C18.4062 10 17.4969 10.9057 17.4969 12ZM10.5219 12C10.5219 13.1226 11.3937 14 12.5 14C13.5969 14 14.4875 13.1038 14.4875 12C14.4875 10.9057 13.5969 10 12.5 10C11.4125 10 10.5219 10.9057 10.5219 12ZM3.5 12C3.5 13.1226 4.38125 14 5.49687 14C6.6125 14 7.50312 13.1038 7.50312 12C7.50312 10.9057 6.6125 10 5.49687 10C4.40937 10 3.5 10.9057 3.5 12Z" fill="white"/>
</g>
</svg>
