<svg width="30" height="30" viewBox="0 0 24 25" fill="none" xmlns="http://www.w3.org/2000/svg">
<g id="calling -Icons">
<path id="Vector" fill-rule="evenodd" clip-rule="evenodd" d="M4.63636 12.5C4.63636 8.43318 7.93318 5.13636 12 5.13636C16.0668 5.13636 19.3636 8.43318 19.3636 12.5C19.3636 16.5668 16.0668 19.8636 12 19.8636C7.93318 19.8636 4.63636 16.5668 4.63636 12.5ZM12 3.5C7.02944 3.5 3 7.52944 3 12.5C3 17.4706 7.02944 21.5 12 21.5C16.9706 21.5 21 17.4706 21 12.5C21 7.52944 16.9706 3.5 12 3.5ZM8.23633 13.4818C8.59669 13.2115 9.10743 13.2835 9.37922 13.642L9.38301 13.6469C9.38788 13.653 9.39714 13.6645 9.41068 13.6807C9.4378 13.713 9.48176 13.7634 9.54168 13.8259C9.6622 13.9517 9.84329 14.1223 10.0778 14.2928C10.5499 14.6362 11.2027 14.9545 12 14.9545C12.7973 14.9545 13.45 14.6362 13.9221 14.2928C14.1566 14.1223 14.3377 13.9517 14.4583 13.8259C14.5182 13.7634 14.5621 13.713 14.5893 13.6807C14.6028 13.6645 14.6121 13.653 14.6169 13.6469L14.6207 13.642C14.8925 13.2835 15.4032 13.2115 15.7636 13.4818C16.1251 13.7529 16.1984 14.2658 15.9272 14.6273L15.2727 14.1363C15.9272 14.6273 15.927 14.6275 15.9268 14.6278L15.9264 14.6284L15.9255 14.6296L15.9232 14.6326L15.9173 14.6403L15.8999 14.6626C15.8858 14.6804 15.8667 14.704 15.8427 14.7326C15.7947 14.7898 15.7268 14.8673 15.6397 14.9581C15.4662 15.1392 15.2126 15.3777 14.8846 15.6162C14.2317 16.091 13.2481 16.5909 12 16.5909C10.7518 16.5909 9.76819 16.091 9.11533 15.6162C8.78732 15.3777 8.53376 15.1392 8.36024 14.9581C8.27315 14.8673 8.20525 14.7898 8.15726 14.7326C8.13325 14.704 8.11414 14.6804 8.10003 14.6626L8.0826 14.6403L8.07671 14.6326L8.07446 14.6296L8.07352 14.6284L8.07309 14.6278C8.07289 14.6275 8.07269 14.6273 8.72724 14.1363L8.07269 14.6273C7.80157 14.2658 7.87484 13.7529 8.23633 13.4818ZM8.72729 10.0447C8.72729 9.59288 9.09361 9.22656 9.54548 9.22656H9.55366C10.0055 9.22656 10.3718 9.59288 10.3718 10.0447C10.3718 10.4966 10.0055 10.8629 9.55366 10.8629H9.54548C9.09361 10.8629 8.72729 10.4966 8.72729 10.0447ZM14.4547 9.22656C14.0028 9.22656 13.6365 9.59288 13.6365 10.0447C13.6365 10.4966 14.0028 10.8629 14.4547 10.8629H14.4628C14.9147 10.8629 15.281 10.4966 15.281 10.0447C15.281 9.59288 14.9147 9.22656 14.4628 9.22656H14.4547Z" fill="#9F9FA3"/>
</g>
</svg>
