<?xml version="1.0" encoding="UTF-8" standalone="no" ?>
<!DOCTYPE svg PUBLIC "-//W3C//DTD SVG 1.1//EN" "http://www.w3.org/Graphics/SVG/1.1/DTD/svg11.dtd">
<svg xmlns="http://www.w3.org/2000/svg" xmlns:xlink="http://www.w3.org/1999/xlink" version="1.1" width="1080" height="1080" viewBox="0 0 1080 1080" xml:space="preserve">
<desc>Created with Fabric.js 5.2.4</desc>
<defs>
</defs>
<g transform="matrix(1 0 0 1 540 540)" id="e84d2fb7-784d-4463-89b5-1d2377902c30"  >
<rect style="stroke: none; stroke-width: 1; stroke-dasharray: none; stroke-linecap: butt; stroke-dashoffset: 0; stroke-linejoin: miter; stroke-miterlimit: 4; fill: rgb(255,255,255); fill-rule: nonzero; opacity: 1; visibility: hidden;" vector-effect="non-scaling-stroke"  x="-540" y="-540" rx="0" ry="0" width="1080" height="1080" />
</g>
<g transform="matrix(1 0 0 1 540 540)" id="45b499b8-3415-4433-b72c-85d3a91a2557"  >
</g>
<g transform="matrix(2.11 0 0 2.11 540 540)"  >
<g style=""   >
		<g transform="matrix(0.05 0 0 0.05 2.06 3.35)"  >
<path style="stroke: none; stroke-width: 1; stroke-dasharray: none; stroke-linecap: butt; stroke-dashoffset: 0; stroke-linejoin: miter; stroke-miterlimit: 4; fill: rgb(255,255,255); fill-rule: nonzero; opacity: 1;" vector-effect="non-scaling-stroke"  transform=" translate(-299.88, -327.46)" d="M 342.714 274.286 C 319.15 274.286 300.047 293.389 300.047 316.953 C 300.047 323.822 301.689 330.24399999999997 304.399 336.046 L 248.442 392.003 C 236.122 404.323 230.029 420.483 230.949 437.08 C 227.28 435.267 223.354 433.88 219.28 432.96299999999997 C 189.563 426.77599999999995 168.07999999999998 400.643 168.07999999999998 369.12299999999993 C 168.07999999999998 333.79499999999996 196.795 305.0799999999999 232.123 305.0799999999999 C 242.74699999999999 305.0799999999999 252.838 307.63999999999993 261.542 312.16299999999995 L 293.49899999999997 280.20599999999996 C 282.832 271.45899999999995 269.2 266.08299999999997 254.12299999999996 266.08299999999997 C 218.79499999999996 266.08299999999997 190.07999999999996 294.79799999999994 190.07999999999996 330.126 C 190.07999999999996 365.454 218.79499999999996 394.169 254.12299999999996 394.169 C 281.366 394.169 304.21399999999994 377.529 313.85599999999994 353.83799999999997 L 369.81299999999993 297.881 C 375.7009999999999 301.166 382.10099999999994 303.17199999999997 389.0129999999999 303.17199999999997 C 412.57699999999994 303.17199999999997 431.67999999999995 284.06899999999996 431.67999999999995 260.505 C 431.67999999999995 236.941 412.57699999999994 217.838 389.0129999999999 217.838 z M 342.714 274.286" stroke-linecap="round" />
</g>
		<g transform="matrix(0.05 0 0 0.05 -4.13 0.81)"  >
<path style="stroke: none; stroke-width: 1; stroke-dasharray: none; stroke-linecap: butt; stroke-dashoffset: 0; stroke-linejoin: miter; stroke-miterlimit: 4; fill: rgb(255,255,255); fill-rule: nonzero; opacity: 1;" vector-effect="non-scaling-stroke"  transform=" translate(-168, -273.32)" d="M 273.143 213.714 C 265.676 213.714 258.188 216.018 251.78799999999998 220.541 C 242.65699999999998 227.24 234.46499999999997 236.754 227.68099999999998 248.914 C 222.945 257.575 217.569 267.282 211.63799999999998 277.92699999999996 C 201.12099999999998 298.47099999999995 190.44299999999998 319.287 184.16099999999997 338.83399999999995 C 177.06999999999996 361.42599999999993 173.38799999999998 381.15899999999993 173.38799999999998 396.00699999999995 C 173.38799999999998 401.8949999999999 178.16699999999997 406.6739999999999 184.05499999999998 406.6739999999999 C 189.94299999999998 406.6739999999999 194.72199999999998 401.8949999999999 194.72199999999998 396.00699999999995 C 194.72199999999998 379.87899999999996 198.28499999999997 360.5079999999999 205.474 338.85499999999996 C 211.725 319.22799999999995 222.434 298.38599999999997 233.165 277.69199999999995 C 239.08499999999998 266.10499999999996 244.482 255.70799999999994 248.269 247.35599999999994 C 253.32500000000002 238.13999999999993 258.658 233.21199999999993 263.928 229.49999999999994 C 269.197 225.80899999999994 275 223.73999999999995 280.739 223.73999999999995 C 295.438 223.73999999999995 307.40599999999995 235.70799999999994 307.40599999999995 250.40699999999995 C 307.40599999999995 256.29499999999996 312.18499999999995 261.07399999999996 318.0729999999999 261.07399999999996 C 323.9609999999999 261.07399999999996 328.7399999999999 256.29499999999996 328.7399999999999 250.40699999999995 C 328.7399999999999 235.70799999999994 316.7719999999999 223.73999999999995 302.07299999999987 223.73999999999995 C 297.0169999999999 223.73999999999995 292.17399999999986 225.23299999999995 287.8439999999999 228.11299999999994 C 283.4919999999999 230.99299999999994 279.45999999999987 235.46199999999993 276.21699999999987 241.16899999999995 C 271.73699999999985 249.40399999999994 266.61699999999985 259.98499999999996 261.02799999999985 272.49699999999996 C 255.37499999999986 285.04099999999994 248.41999999999985 299.86799999999994 240.05699999999985 316.16599999999994 C 232.78199999999984 331.86699999999996 224.42999999999984 348.38999999999993 215.09699999999984 364.4429999999999 C 212.23799999999983 369.43499999999995 209.54999999999984 374.09599999999995 206.98999999999984 378.30999999999995 C 205.62499999999983 380.67799999999994 204.34499999999983 382.91799999999995 203.17099999999985 384.96599999999995 C 201.91199999999986 387.131 200.80299999999986 389.01899999999995 199.86399999999986 390.57699999999994 C 196.47199999999987 395.6329999999999 194.74399999999986 398.21399999999994 194.74399999999986 398.21399999999994 C 194.74399999999986 398.21399999999994 192.82399999999987 395.09899999999993 189.62399999999985 390.57699999999994 C 188.64299999999986 389.11599999999993 187.38399999999984 387.25999999999993 185.95499999999984 385.00899999999996 C 182.96799999999985 380.77399999999994 179.59799999999984 376.006 175.83199999999985 370.67299999999994 C 168.41899999999984 359.60099999999994 160.22699999999986 347.61199999999997 151.72499999999985 334.78999999999996 C 136.98399999999987 311.825 123.71399999999986 290.246 112.64199999999985 271.515 C 101.29299999999985 252.272 92.53499999999985 236.784 87.04199999999986 225.648 C 80.47099999999986 211.31199999999998 77.05799999999986 203.803 77.05799999999986 203.803 C 77.05799999999986 203.803 76.67399999999986 203.035 76.05499999999986 201.755 C 75.47899999999987 200.39 74.79599999999986 198.79 74.04999999999987 196.976 C 72.44999999999987 193.157 70.39099999999986 188.912 67.86299999999987 184.24 C 62.31699999999987 173.723 54.52999999999987 163.803 44.80199999999987 155.696 C 36.86599999999987 149.04 28.758999999999872 144.475 20.694999999999872 141.97899999999998 C 15.958999999999872 140.61399999999998 11.478999999999873 139.974 7.254999999999873 139.974 z M 273.143 213.714" stroke-linecap="round" />
</g>
</g>
</g>
</svg>