<svg xmlns="http://www.w3.org/2000/svg" viewBox="0 0 512 512" width="24" height="24">
    <path fill="white" d="M342.714 274.286c-23.564 0-42.667 19.103-42.667 42.667 0 6.869 1.642 13.291 4.352 19.093l-55.957 55.957c-12.32 12.32-18.413 28.48-17.493 45.077-3.669-1.813-7.595-3.2-11.669-4.117-29.717-6.187-51.2-32.32-51.2-63.84 0-35.328 28.715-64.043 64.043-64.043 10.624 0 20.715 2.56 29.419 7.083l31.957-31.957c-10.667-8.747-24.299-14.123-39.376-14.123-35.328 0-64.043 28.715-64.043 64.043s28.715 64.043 64.043 64.043c27.243 0 50.091-16.64 59.733-40.331l55.957-55.957c5.888 3.285 12.288 5.291 19.2 5.291 23.564 0 42.667-19.103 42.667-42.667 0-23.564-19.103-42.667-42.667-42.667zm0 0"/>
    <path fill="white" d="M273.143 213.714c-7.467 0-14.955 2.304-21.355 6.827-9.131 6.699-17.323 16.213-24.107 28.373-4.736 8.661-10.112 18.368-16.043 29.013-10.517 20.544-21.195 41.36-27.477 60.907-7.091 22.592-10.773 42.325-10.773 57.173 0 5.888 4.779 10.667 10.667 10.667s10.667-4.779 10.667-10.667c0-16.128 3.563-35.499 10.752-57.152 6.251-19.627 16.96-40.469 27.691-61.163 5.92-11.587 11.317-21.984 15.104-30.336 5.056-9.216 10.389-14.144 15.659-17.856 5.269-3.691 11.072-5.76 16.811-5.76 14.699 0 26.667 11.968 26.667 26.667 0 5.888 4.779 10.667 10.667 10.667s10.667-4.779 10.667-10.667c0-14.699-11.968-26.667-26.667-26.667-5.056 0-9.899 1.493-14.229 4.373-4.352 2.88-8.384 7.349-11.627 13.056-4.48 8.235-9.6 18.816-15.189 31.328-5.653 12.544-12.608 27.371-20.971 43.669-7.275 15.701-15.627 32.224-24.96 48.277-2.859 4.992-5.547 9.653-8.107 13.867-1.365 2.368-2.645 4.608-3.819 6.656-1.259 2.165-2.368 4.053-3.307 5.611-3.392 5.056-5.12 7.637-5.12 7.637s-1.92-3.115-5.12-7.637c-.981-1.461-2.24-3.317-3.669-5.568-2.987-4.235-6.357-9.003-10.123-14.336-7.413-11.072-15.605-23.061-24.107-35.883-14.741-22.965-28.011-44.544-39.083-63.275-11.349-19.243-20.107-34.731-25.6-45.867-6.571-14.336-9.984-21.845-9.984-21.845s-.384-.768-1.003-2.048c-.576-1.365-1.259-2.965-2.005-4.779-1.6-3.819-3.659-8.064-6.187-12.736-5.546-10.517-13.333-20.437-23.061-28.544-7.936-6.656-16.043-11.221-24.107-13.717-4.736-1.365-9.216-2.005-13.44-2.005zm0 0"/>
  </svg>
  