<svg width="24" height="24" viewBox="0 0 24 24" fill="none" xmlns="http://www.w3.org/2000/svg">
<g id="calling -Icons">
<path id="Vector" d="M18.5999 4.80078C19.3956 4.80078 20.1586 5.11685 20.7212 5.67946C21.2838 6.24207 21.5999 7.00513 21.5999 7.80078V17.4008C21.5999 18.1964 21.2838 18.9595 20.7212 19.5221C20.1586 20.0847 19.3956 20.4008 18.5999 20.4008H5.3999C4.60425 20.4008 3.84119 20.0847 3.27858 19.5221C2.71597 18.9595 2.3999 18.1964 2.3999 17.4008V7.80078C2.3999 7.00513 2.71597 6.24207 3.27858 5.67946C3.84119 5.11685 4.60425 4.80078 5.3999 4.80078H18.5999ZM20.3999 9.55398L12.3047 14.318C12.2282 14.3629 12.1426 14.3903 12.0542 14.3982C11.9658 14.4061 11.8768 14.3943 11.7935 14.3636L11.6951 14.318L3.5999 9.55638V17.4008C3.5999 17.8782 3.78954 18.336 4.12711 18.6736C4.46468 19.0111 4.92251 19.2008 5.3999 19.2008H18.5999C19.0773 19.2008 19.5351 19.0111 19.8727 18.6736C20.2103 18.336 20.3999 17.8782 20.3999 17.4008V9.55398ZM18.5999 6.00078H5.3999C4.92251 6.00078 4.46468 6.19042 4.12711 6.52799C3.78954 6.86555 3.5999 7.32339 3.5999 7.80078V8.16318L11.9999 13.1048L20.3999 8.16078V7.80078C20.3999 7.32339 20.2103 6.86555 19.8727 6.52799C19.5351 6.19042 19.0773 6.00078 18.5999 6.00078Z" fill="white"/>
</g>
</svg>
