<svg width="25" height="24" viewBox="0 0 25 24" fill="none" xmlns="http://www.w3.org/2000/svg">
<g id="calling -Icons">
<g id="Vector">
<path d="M6.04998 4.7C5.82454 4.7 5.60834 4.78955 5.44894 4.94896C5.28953 5.10837 5.19998 5.32457 5.19998 5.55L5.19998 17.45C5.19998 17.6754 5.28953 17.8916 5.44894 18.051C5.60834 18.2104 5.82454 18.3 6.04998 18.3L9.44998 18.3C9.91942 18.3 10.3 18.6806 10.3 19.15C10.3 19.6194 9.91942 20 9.44998 20L6.04998 20C5.37367 20 4.72507 19.7313 4.24685 19.2531C3.76864 18.7749 3.49998 18.1263 3.49998 17.45L3.49998 5.55C3.49998 4.8737 3.76864 4.2251 4.24685 3.74688C4.72507 3.26866 5.37367 3 6.04998 3L9.44998 3C9.91942 3 10.3 3.38056 10.3 3.85C10.3 4.31944 9.91942 4.7 9.44998 4.7L6.04998 4.7Z" fill="#DF4B47"/>
<path d="M14.7989 6.64897C15.1309 6.31702 15.6691 6.31702 16.001 6.64897L20.2484 10.8963C20.2574 10.9052 20.2662 10.9144 20.2748 10.9237C20.3415 10.9959 20.3934 11.0769 20.4304 11.1627C20.4752 11.2661 20.5 11.3802 20.5 11.5C20.5 11.62 20.4751 11.7343 20.4302 11.8378C20.3935 11.9227 20.3423 12.0028 20.2766 12.0743C20.2674 12.0844 20.2579 12.0942 20.2482 12.1038L16.001 16.351C15.6691 16.683 15.1309 16.683 14.7989 16.351C14.467 16.0191 14.467 15.4809 14.7989 15.149L17.5979 12.35L9.45 12.35C8.98056 12.35 8.6 11.9694 8.6 11.5C8.6 11.0306 8.98056 10.65 9.45 10.65L17.5979 10.65L14.7989 7.85105C14.467 7.5191 14.467 6.98091 14.7989 6.64897Z" fill="#DF4B47"/>
</g>
</g>
</svg>
