<svg width="24" height="25" viewBox="0 0 24 25" fill="none" xmlns="http://www.w3.org/2000/svg">
<g id="iconoir:send-solid">
<path id="Vector" fill-rule="evenodd" clip-rule="evenodd" d="M3.29101 3.80861C3.15245 3.75036 2.99959 3.73509 2.85225 3.76477C2.70491 3.79446 2.56988 3.86772 2.46469 3.97508C2.35949 4.08243 2.28897 4.21891 2.26229 4.36682C2.2356 4.51474 2.25396 4.66726 2.31501 4.80461L5.40801 11.7496H13C13.1989 11.7496 13.3897 11.8286 13.5303 11.9693C13.671 12.1099 13.75 12.3007 13.75 12.4996C13.75 12.6985 13.671 12.8893 13.5303 13.0299C13.3897 13.1706 13.1989 13.2496 13 13.2496H5.40801L2.31501 20.1946C2.25396 20.332 2.2356 20.4845 2.26229 20.6324C2.28897 20.7803 2.35949 20.9168 2.46469 21.0241C2.56988 21.1315 2.70491 21.2048 2.85225 21.2344C2.99959 21.2641 3.15245 21.2488 3.29101 21.1906L22.291 13.1906C22.4269 13.1333 22.5429 13.0371 22.6244 12.9142C22.7059 12.7913 22.7494 12.6471 22.7494 12.4996C22.7494 12.3521 22.7059 12.2079 22.6244 12.085C22.5429 11.9621 22.4269 11.8659 22.291 11.8086L3.29101 3.80861Z" fill="#9F9FA3"/>
</g>
</svg>
