<?xml version="1.0" encoding="UTF-8" standalone="no"?>
<!DOCTYPE svg PUBLIC "-//W3C//DTD SVG 1.1//EN" "http://www.w3.org/Graphics/SVG/1.1/DTD/svg11.dtd">
<svg xmlns="http://www.w3.org/2000/svg" xmlns:xlink="http://www.w3.org/1999/xlink" version="1.1"
	width="24" height="24" viewBox="0 0 1080 1080" xml:space="preserve">
<desc>Created with Fabric.js 5.2.4</desc>
<defs>
</defs>
<g transform="matrix(1 0 0 1 540 540)" id="52eff477-c795-46d4-91af-4bbebbd23a53"  >
<rect style="stroke: none; stroke-width: 1; stroke-dasharray: none; stroke-linecap: butt; stroke-dashoffset: 0; stroke-linejoin: miter; stroke-miterlimit: 4; fill: red; fill-rule: nonzero; opacity: 1; visibility: hidden;" vector-effect="non-scaling-stroke"  x="-540" y="-540" rx="0" ry="0" width="1080" height="1080" />
</g>
<g transform="matrix(1 0 0 1 540 540)" id="69cfc1ce-ebab-4bba-a551-2a8ae44b8b35"  >
</g>
<g transform="matrix(45 0 0 45 540 540)"  >
<g style=""   >
		<g transform="matrix(1 0 0 1 -0.33 -3.33)"  >
<path style="stroke: none; stroke-width: 1; stroke-dasharray: none; stroke-linecap: butt; stroke-dashoffset: 0; stroke-linejoin: miter; stroke-miterlimit: 4; fill: red; fill-rule: evenodd; opacity: 1;" vector-effect="non-scaling-stroke"  transform=" translate(-11.67, -8.67)" d="M 9.30963 2.97631 C 9.93475 2.35119 10.7826 2 11.6667 2 C 12.5507 2 13.3986 2.35119 14.0237 2.97631 C 14.6488 3.60143 15 4.44928 15 5.33333 L 15 12 C 15 12.8841 14.6488 13.7319 14.0237 14.357 C 13.3986 14.9821 12.5507 15.3333 11.6667 15.3333 C 10.7826 15.3333 9.93475 14.9821 9.30963 14.357 C 8.68451 13.7319 8.33332 12.8841 8.33332 12 L 8.33332 5.33333 C 8.33332 4.44928 8.68451 3.60143 9.30963 2.97631 Z M 11.6667 3.66667 C 11.2246 3.66667 10.8007 3.84226 10.4881 4.15482 C 10.1756 4.46738 9.99999 4.89131 9.99999 5.33333 L 9.99999 12 C 9.99999 12.442 10.1756 12.866 10.4881 13.1785 C 10.8007 13.4911 11.2246 13.6667 11.6667 13.6667 C 12.1087 13.6667 12.5326 13.4911 12.8452 13.1785 C 13.1577 12.866 13.3333 12.442 13.3333 12 L 13.3333 5.33333 C 13.3333 4.89131 13.1577 4.46738 12.8452 4.15482 C 12.5326 3.84226 12.1087 3.66667 11.6667 3.66667 Z" stroke-linecap="round" />
</g>
		<g transform="matrix(1 0 0 1 -0.33 2.08)"  >
<path style="stroke: none; stroke-width: 1; stroke-dasharray: none; stroke-linecap: butt; stroke-dashoffset: 0; stroke-linejoin: miter; stroke-miterlimit: 4; fill: red; fill-rule: evenodd; opacity: 1;" vector-effect="non-scaling-stroke"  transform=" translate(-11.67, -14.08)" d="M 5.83333 9.5 C 6.29357 9.5 6.66667 9.8731 6.66667 10.3333 L 6.66667 12 C 6.66667 13.3261 7.19345 14.5979 8.13113 15.5355 C 9.06881 16.4732 10.3406 17 11.6667 17 C 12.9927 17 14.2645 16.4732 15.2022 15.5355 C 16.1399 14.5979 16.6667 13.3261 16.6667 12 L 16.6667 10.3333 C 16.6667 9.8731 17.0398 9.5 17.5 9.5 C 17.9602 9.5 18.3333 9.8731 18.3333 10.3333 L 18.3333 12 C 18.3333 13.7681 17.631 15.4638 16.3807 16.714 C 15.1305 17.9643 13.4348 18.6667 11.6667 18.6667 C 9.89856 18.6667 8.20286 17.9643 6.95262 16.714 C 5.70238 15.4638 5 13.7681 5 12 L 5 10.3333 C 5 9.8731 5.3731 9.5 5.83333 9.5 Z" stroke-linecap="round" />
</g>
		<g transform="matrix(1 0 0 1 -0.33 7.5)"  >
<path style="stroke: none; stroke-width: 1; stroke-dasharray: none; stroke-linecap: butt; stroke-dashoffset: 0; stroke-linejoin: miter; stroke-miterlimit: 4; fill: red; fill-rule: evenodd; opacity: 1;" vector-effect="non-scaling-stroke"  transform=" translate(-11.67, -19.5)" d="M 11.6667 17 C 12.1269 17 12.5 17.3731 12.5 17.8333 L 12.5 21.1667 C 12.5 21.6269 12.1269 22 11.6667 22 C 11.2064 22 10.8333 21.6269 10.8333 21.1667 L 10.8333 17.8333 C 10.8333 17.3731 11.2064 17 11.6667 17 Z" stroke-linecap="round" />
</g>
		<g transform="matrix(1 0 0 1 -0.33 9.17)"  >
<path style="stroke: none; stroke-width: 1; stroke-dasharray: none; stroke-linecap: butt; stroke-dashoffset: 0; stroke-linejoin: miter; stroke-miterlimit: 4; fill: red; fill-rule: evenodd; opacity: 1;" vector-effect="non-scaling-stroke"  transform=" translate(-11.67, -21.17)" d="M 7.5 21.1666 C 7.5 20.7064 7.8731 20.3333 8.33333 20.3333 L 15 20.3333 C 15.4602 20.3333 15.8333 20.7064 15.8333 21.1666 C 15.8333 21.6268 15.4602 21.9999 15 21.9999 L 8.33333 21.9999 C 7.8731 21.9999 7.5 21.6268 7.5 21.1666 Z" stroke-linecap="round" />
</g>
		<g transform="matrix(1 0 0 1 9 0)"  >
<path style="stroke: red; stroke-width: 2; stroke-dasharray: none; stroke-linecap: round; stroke-dashoffset: 0; stroke-linejoin: round; stroke-miterlimit: 4; fill: none; fill-rule: nonzero; opacity: 1;" vector-effect="non-scaling-stroke"  transform=" translate(-21, -12)" d="M 19 12 L 23 12" stroke-linecap="round" />
</g>
		<g transform="matrix(1 0 0 1 3 0)"  >
<path style="stroke: red; stroke-width: 2; stroke-dasharray: none; stroke-linecap: round; stroke-dashoffset: 0; stroke-linejoin: round; stroke-miterlimit: 4; fill: none; fill-rule: nonzero; opacity: 1;" vector-effect="non-scaling-stroke"  transform=" translate(-15, -12)" d="M 15 8 L 15 16" stroke-linecap="round" />
</g>
		<g transform="matrix(1 0 0 1 -5 0)"  >
<path style="stroke: red; stroke-width: 2; stroke-dasharray: none; stroke-linecap: round; stroke-dashoffset: 0; stroke-linejoin: round; stroke-miterlimit: 4; fill: none; fill-rule: nonzero; opacity: 1;" vector-effect="non-scaling-stroke"  transform=" translate(-7, -12)" d="M 5 12 L 9 12" stroke-linecap="round" />
</g>
</g>
</g>
</svg>