<svg width="15" height="14" viewBox="0 0 15 14" fill="none" xmlns="http://www.w3.org/2000/svg">
<g id="f7:hand-raised">
<path id="Vector" d="M6.78227 13.3771C8.84477 13.3771 10.292 12.2578 11.0713 10.0606L12.1025 7.16009C12.3603 6.42759 12.126 5.82434 11.5165 5.60159C10.9715 5.40234 10.4325 5.63659 10.1748 6.24034L9.79402 7.17784C9.78227 7.20134 9.76477 7.21884 9.74127 7.21884C9.71202 7.21884 9.70027 7.19534 9.70027 7.16609V2.46684C9.70027 1.78134 9.27252 1.35359 8.61627 1.35359C8.37602 1.35359 8.15927 1.43559 7.99502 1.58809C7.91902 0.990344 7.53227 0.621094 6.95227 0.621094C6.38377 0.621094 5.98527 1.00209 5.89727 1.57609C5.75102 1.42984 5.54002 1.35359 5.32902 1.35359C4.71977 1.35359 4.31552 1.77559 4.31552 2.42609V3.07609C4.15727 2.91209 3.92302 2.82434 3.67102 2.82434C3.06152 2.82434 2.63977 3.27534 2.63977 3.93184V8.96484C2.63977 11.7071 4.30377 13.3771 6.78227 13.3771ZM6.75302 12.5626C4.67877 12.5626 3.41302 11.2326 3.41302 8.87109V4.01359C3.41302 3.76759 3.57127 3.59184 3.81752 3.59184C4.05752 3.59184 4.23352 3.76759 4.23352 4.01384V7.00784C4.23352 7.22459 4.40927 7.37109 4.59677 7.37109C4.79602 7.37109 4.97752 7.22459 4.97752 7.00784V2.53159C4.97752 2.27959 5.13577 2.10959 5.37602 2.10959C5.62202 2.10959 5.79202 2.27959 5.79202 2.53159V6.70909C5.79202 6.92609 5.96777 7.07259 6.16127 7.07259C6.36027 7.07259 6.54202 6.92609 6.54202 6.70934V1.80484C6.54202 1.55859 6.70602 1.37709 6.95202 1.37709C7.18652 1.37709 7.35652 1.55859 7.35652 1.80459V6.70909C7.35652 6.91409 7.52052 7.07234 7.72552 7.07234C7.92477 7.07234 8.10052 6.91409 8.10052 6.70909V2.53134C8.10052 2.27934 8.27052 2.10934 8.51077 2.10934C8.75677 2.10934 8.92077 2.27934 8.92077 2.53134V8.29659C8.92077 8.56609 9.09077 8.75959 9.33702 8.75959C9.54777 8.75959 9.72377 8.66584 9.85852 8.37284L10.6553 6.59159C10.7608 6.33959 10.9718 6.21084 11.1885 6.29284C11.4228 6.38659 11.505 6.60909 11.3935 6.91384L10.3565 9.80834C9.64152 11.8066 8.38777 12.5623 6.75302 12.5623" fill="white"/>
</g>
</svg>
