<svg width="21" height="20" viewBox="0 0 21 20" fill="none" xmlns="http://www.w3.org/2000/svg">
<path id="Vector" d="M0.770662 15.5555C0.241718 14.4803 -0.0219002 13.294 0.00188828 12.0959C0.0256767 10.8979 0.336176 9.72297 0.907385 8.6696C1.47859 7.61624 2.29388 6.71507 3.28497 6.04157C4.27606 5.36807 5.4141 4.94184 6.60379 4.79859C6.99834 3.87883 7.57299 3.04734 8.29387 2.35311C9.01476 1.65888 9.86729 1.11595 10.8013 0.756312C11.7352 0.396672 12.7317 0.227596 13.732 0.259045C14.7324 0.290493 15.7163 0.521831 16.6258 0.939428C17.5353 1.35703 18.3521 1.95243 19.0279 2.69058C19.7038 3.42872 20.2251 4.29466 20.5611 5.23739C20.8971 6.18011 21.041 7.18055 20.9843 8.17976C20.9277 9.17897 20.6717 10.1567 20.2313 11.0555L20.9494 13.5698C21.0135 13.7948 21.0163 14.0328 20.9575 14.2592C20.8988 14.4855 20.7806 14.6921 20.6152 14.8575C20.4498 15.0229 20.2432 15.1411 20.0169 15.1998C19.7905 15.2586 19.5525 15.2558 19.3275 15.1917L16.8132 14.4736C16.0544 14.8461 15.2383 15.0879 14.3991 15.1889C13.9991 16.1261 13.4123 16.972 12.6745 17.6749C11.9367 18.3778 11.0634 18.9229 10.1079 19.2771C9.1524 19.6313 8.13476 19.787 7.11708 19.7348C6.09941 19.6827 5.10303 19.4236 4.18879 18.9736L1.67441 19.6917C1.44947 19.7558 1.21149 19.7586 0.985094 19.6998C0.758703 19.6411 0.552124 19.5229 0.386738 19.3575C0.22135 19.1921 0.103163 18.9855 0.044405 18.7592C-0.0143528 18.5328 -0.0115452 18.2948 0.052536 18.0698L0.770662 15.5555ZM16.7325 12.9211C16.8022 12.9211 16.8716 12.9306 16.9388 12.9492L19.4147 13.657L18.7069 11.1811C18.6539 10.9925 18.6767 10.7906 18.7707 10.6186C19.4603 9.35252 19.6706 7.88036 19.363 6.47185C19.0555 5.06335 18.2507 3.81283 17.0961 2.94946C15.9415 2.08609 14.5144 1.66768 13.0765 1.7709C11.6385 1.87412 10.2858 2.49207 9.26639 3.5115C8.24695 4.53093 7.62901 5.88357 7.52579 7.32157C7.42256 8.75956 7.84097 10.1866 8.70434 11.3412C9.56772 12.4958 10.8182 13.3006 12.2267 13.6081C13.6352 13.9157 15.1074 13.7054 16.3735 13.0158C16.4832 12.9544 16.6068 12.9218 16.7325 12.9211ZM2.29504 15.6811L1.58722 18.157L4.06316 17.4492C4.25179 17.3962 4.45369 17.4191 4.62566 17.513C6.0082 18.2651 7.63075 18.4445 9.14419 18.0125C10.6576 17.5805 11.941 16.5716 12.7182 15.203C11.6912 15.096 10.6974 14.778 9.79911 14.2688C8.90085 13.7596 8.1175 13.0703 7.49823 12.2441C6.87896 11.4178 6.43713 10.4725 6.20045 9.4675C5.96376 8.46245 5.93735 7.41933 6.12285 6.40359C5.22414 6.61539 4.38644 7.03174 3.67496 7.62024C2.96349 8.20874 2.39743 8.9535 2.02086 9.79655C1.64429 10.6396 1.46736 11.5582 1.50386 12.4808C1.54036 13.4034 1.78929 14.3051 2.23129 15.1158C2.32595 15.2885 2.34885 15.4916 2.29504 15.6811Z" fill="#FFF5E6"/>
</svg>
